<mxfile host="Electron" modified="2024-04-04T21:26:11.669Z" agent="Mozilla/5.0 (Windows NT 10.0; Win64; x64) AppleWebKit/537.36 (KHTML, like Gecko) draw.io/24.1.0 Chrome/120.0.6099.109 Electron/28.1.0 Safari/537.36" etag="PXIC5m-rT09NX-XmhZs6" version="24.1.0" type="device">
  <diagram name="Страница — 1" id="NSVCXEdr86-WMYlb2r_U">
    <mxGraphModel dx="472" dy="835" grid="1" gridSize="10" guides="1" tooltips="1" connect="1" arrows="1" fold="1" page="1" pageScale="1" pageWidth="827" pageHeight="1169" math="0" shadow="0">
      <root>
        <mxCell id="0" />
        <mxCell id="1" parent="0" />
        <mxCell id="pTlJVMw5-yoAj7Tl9JmL-1" value="&amp;lt;&amp;lt;Interface ICloneable&amp;gt;&amp;gt;" style="swimlane;whiteSpace=wrap;html=1;" vertex="1" parent="1">
          <mxGeometry x="220" y="180" width="220" height="70" as="geometry" />
        </mxCell>
        <mxCell id="pTlJVMw5-yoAj7Tl9JmL-2" value="+Clone() :&amp;nbsp;&lt;span style=&quot;font-weight: 700;&quot;&gt;ICloneable&lt;/span&gt;" style="rounded=0;whiteSpace=wrap;html=1;" vertex="1" parent="pTlJVMw5-yoAj7Tl9JmL-1">
          <mxGeometry y="20" width="220" height="50" as="geometry" />
        </mxCell>
        <mxCell id="pTlJVMw5-yoAj7Tl9JmL-6" style="edgeStyle=orthogonalEdgeStyle;rounded=0;orthogonalLoop=1;jettySize=auto;html=1;entryX=0.5;entryY=1;entryDx=0;entryDy=0;endArrow=block;endFill=0;dashed=1;dashPattern=8 8;" edge="1" parent="1" source="pTlJVMw5-yoAj7Tl9JmL-3" target="pTlJVMw5-yoAj7Tl9JmL-1">
          <mxGeometry relative="1" as="geometry" />
        </mxCell>
        <mxCell id="pTlJVMw5-yoAj7Tl9JmL-3" value="Virus" style="swimlane;whiteSpace=wrap;html=1;" vertex="1" parent="1">
          <mxGeometry x="220" y="320" width="220" height="200" as="geometry" />
        </mxCell>
        <mxCell id="pTlJVMw5-yoAj7Tl9JmL-4" value="+Weight: double&amp;nbsp; &amp;nbsp; &amp;nbsp; &amp;nbsp;&amp;nbsp;&lt;div&gt;+Age: int&amp;nbsp; &amp;nbsp; &amp;nbsp; &amp;nbsp; &amp;nbsp; &amp;nbsp; &amp;nbsp; &amp;nbsp; &amp;nbsp; &amp;nbsp;&amp;nbsp;&lt;/div&gt;&lt;div&gt;+Name: string&amp;nbsp; &amp;nbsp; &amp;nbsp; &amp;nbsp; &amp;nbsp; &amp;nbsp;&amp;nbsp;&lt;/div&gt;&lt;div&gt;+Type: string&amp;nbsp; &amp;nbsp; &amp;nbsp; &amp;nbsp; &amp;nbsp; &amp;nbsp; &amp;nbsp;&amp;nbsp;&lt;/div&gt;&lt;div&gt;+Chidren: List&amp;lt;Virus&amp;gt;&lt;/div&gt;" style="rounded=0;whiteSpace=wrap;html=1;" vertex="1" parent="pTlJVMw5-yoAj7Tl9JmL-3">
          <mxGeometry y="20" width="220" height="80" as="geometry" />
        </mxCell>
        <mxCell id="pTlJVMw5-yoAj7Tl9JmL-5" value="+AddChild(Virus)&lt;div&gt;+Clone()&amp;nbsp; &amp;nbsp; &amp;nbsp; &amp;nbsp; &amp;nbsp; &amp;nbsp; &amp;nbsp;&lt;/div&gt;&lt;div&gt;+PrintDetails&amp;nbsp; &amp;nbsp; &amp;nbsp; &amp;nbsp;&lt;/div&gt;" style="rounded=0;whiteSpace=wrap;html=1;" vertex="1" parent="pTlJVMw5-yoAj7Tl9JmL-3">
          <mxGeometry y="100" width="220" height="100" as="geometry" />
        </mxCell>
      </root>
    </mxGraphModel>
  </diagram>
</mxfile>
